<svg width="65" height="64" viewBox="0 0 65 64" fill="none" xmlns="http://www.w3.org/2000/svg">
<rect x="0.5" width="64" height="64" rx="2" fill="url(#paint0_linear_76_27769)"/>
<path d="M44.0008 37.1376L32.5008 43.8376L21.0008 37.1376C20.7739 37.0287 20.5142 37.0095 20.2737 37.0836C20.0332 37.1578 19.8295 37.32 19.7032 37.5377C19.577 37.7555 19.5375 38.0128 19.5927 38.2584C19.6478 38.504 19.7936 38.7197 20.0008 38.8626L32.0008 45.8626C32.152 45.9529 32.3248 46.0006 32.5008 46.0006C32.6769 46.0006 32.8497 45.9529 33.0008 45.8626L45.0008 38.8626C45.1252 38.803 45.2358 38.7182 45.3259 38.6138C45.4159 38.5093 45.4833 38.3874 45.524 38.2556C45.5646 38.1238 45.5775 37.9851 45.562 37.848C45.5464 37.711 45.5027 37.5787 45.4335 37.4594C45.3643 37.3401 45.2713 37.2364 45.1601 37.1548C45.0489 37.0732 44.9221 37.0155 44.7875 36.9853C44.653 36.955 44.5136 36.953 44.3783 36.9792C44.2429 37.0054 44.1144 37.0593 44.0008 37.1376Z" fill="#0A0034"/>
<path d="M44.0008 31.1376L32.5008 37.8376L21.0008 31.1376C20.7739 31.0287 20.5142 31.0095 20.2737 31.0836C20.0332 31.1578 19.8295 31.3199 19.7032 31.5377C19.577 31.7555 19.5375 32.0128 19.5927 32.2584C19.6478 32.504 19.7936 32.7197 20.0008 32.8626L32.0008 39.8626C32.152 39.9529 32.3248 40.0006 32.5008 40.0006C32.6769 40.0006 32.8497 39.9529 33.0008 39.8626L45.0008 32.8626C45.1252 32.803 45.2358 32.7182 45.3259 32.6138C45.4159 32.5093 45.4833 32.3874 45.524 32.2556C45.5646 32.1238 45.5775 31.9851 45.562 31.848C45.5464 31.711 45.5027 31.5787 45.4335 31.4594C45.3643 31.3401 45.2713 31.2364 45.1601 31.1548C45.0489 31.0732 44.9221 31.0155 44.7875 30.9852C44.653 30.955 44.5136 30.953 44.3783 30.9792C44.2429 31.0054 44.1144 31.0593 44.0008 31.1376Z" fill="#0A0034"/>
<path d="M19.9998 26.8651L31.9998 33.8651C32.151 33.9554 32.3237 34.003 32.4998 34.003C32.6759 34.003 32.8487 33.9554 32.9998 33.8651L44.9998 26.8651C45.1502 26.7768 45.2749 26.6508 45.3615 26.4995C45.4482 26.3482 45.4937 26.1769 45.4937 26.0026C45.4937 25.8282 45.4482 25.6569 45.3615 25.5056C45.2749 25.3543 45.1502 25.2283 44.9998 25.1401L32.9998 18.1401C32.8491 18.0485 32.6762 18 32.4998 18C32.3235 18 32.1505 18.0485 31.9998 18.1401L19.9998 25.1401C19.8494 25.2283 19.7247 25.3543 19.6381 25.5056C19.5514 25.6569 19.5059 25.8282 19.5059 26.0026C19.5059 26.1769 19.5514 26.3482 19.6381 26.4995C19.7247 26.6508 19.8494 26.7768 19.9998 26.8651Z" fill="#0A0034"/>
<defs>
<linearGradient id="paint0_linear_76_27769" x1="-19.5" y1="-8.5" x2="78.6294" y2="-4.85984" gradientUnits="userSpaceOnUse">
<stop stop-color="#F1E800"/>
<stop offset="1" stop-color="#FF5C00"/>
</linearGradient>
</defs>
</svg>
