<svg width="65" height="64" viewBox="0 0 65 64" fill="none" xmlns="http://www.w3.org/2000/svg">
<rect x="0.5" width="64" height="64" rx="2" fill="url(#paint0_linear_76_27790)"/>
<path d="M44.6259 18.875C41.9634 18.875 38.9634 20.35 35.7384 23.2375C33.4759 25.2625 31.5384 27.575 30.2009 29.325C29.079 28.9835 27.8928 28.9094 26.7372 29.1087C25.5816 29.3079 24.4886 29.7748 23.5458 30.4722C22.6031 31.1696 21.8366 32.078 21.3079 33.1247C20.7791 34.1714 20.5028 35.3273 20.5009 36.5C20.5009 40.4 18.4759 42.1375 18.3759 42.225C18.2131 42.3508 18.0948 42.5256 18.0386 42.7236C17.9823 42.9215 17.991 43.1323 18.0634 43.325C18.1273 43.5227 18.2528 43.6949 18.4214 43.8163C18.5901 43.9377 18.7931 44.0021 19.0009 44H28.0009C29.1736 43.9981 30.3295 43.7218 31.3762 43.193C32.4229 42.6643 33.3313 41.8978 34.0287 40.9551C34.7261 40.0123 35.193 38.9193 35.3923 37.7637C35.5915 36.6081 35.5174 35.4219 35.1759 34.3C36.9259 32.9625 39.2384 31.025 41.2634 28.7625C44.1509 25.5375 45.6259 22.5375 45.6259 19.875C45.6259 19.6098 45.5205 19.3554 45.333 19.1679C45.1455 18.9804 44.8911 18.875 44.6259 18.875ZM32.0509 30.2C32.4134 29.7375 32.8384 29.2125 33.3259 28.6375C34.3264 29.313 35.1879 30.1745 35.8634 31.175C35.2884 31.6625 34.7634 32.0875 34.3009 32.45C33.7223 31.5462 32.9547 30.7786 32.0509 30.2ZM37.3759 29.8375C36.628 28.7895 35.7114 27.8729 34.6634 27.125C37.1134 24.475 40.4134 21.575 43.5134 20.9875C42.9259 24.0875 40.0259 27.3875 37.3759 29.8375Z" fill="#0A0034"/>
<defs>
<linearGradient id="paint0_linear_76_27790" x1="-19.5" y1="-8.5" x2="78.6294" y2="-4.85984" gradientUnits="userSpaceOnUse">
<stop stop-color="#00FFD1"/>
<stop offset="1" stop-color="#00CB5D"/>
</linearGradient>
</defs>
</svg>
