<svg width="65" height="64" viewBox="0 0 65 64" fill="none" xmlns="http://www.w3.org/2000/svg">
<rect x="0.5" width="64" height="64" rx="2" fill="url(#paint0_linear_76_27781)"/>
<path d="M43.5 22H21.5C21.2348 22 20.9804 22.1054 20.7929 22.2929C20.6054 22.4804 20.5 22.7348 20.5 23V42C20.5 42.5304 20.7107 43.0391 21.0858 43.4142C21.4609 43.7893 21.9696 44 22.5 44H27.5C28.0304 44 28.5391 43.7893 28.9142 43.4142C29.2893 43.0391 29.5 42.5304 29.5 42V36H35.5V38C35.5 38.5304 35.7107 39.0391 36.0858 39.4142C36.4609 39.7893 36.9696 40 37.5 40H42.5C43.0304 40 43.5391 39.7893 43.9142 39.4142C44.2893 39.0391 44.5 38.5304 44.5 38V23C44.5 22.7348 44.3946 22.4804 44.2071 22.2929C44.0196 22.1054 43.7652 22 43.5 22ZM27.5 24V31H22.5V24H27.5ZM29.5 34V24H35.5V34H29.5ZM37.5 38V31H42.5V38H37.5Z" fill="#0A0034"/>
<defs>
<linearGradient id="paint0_linear_76_27781" x1="-19.5" y1="-8.5" x2="78.6294" y2="-4.85984" gradientUnits="userSpaceOnUse">
<stop stop-color="#00F0FF"/>
<stop offset="1" stop-color="#0047FF"/>
</linearGradient>
</defs>
</svg>
