<svg width="65" height="64" viewBox="0 0 65 64" fill="none" xmlns="http://www.w3.org/2000/svg">
<rect x="0.5" width="64" height="64" rx="2" fill="url(#paint0_linear_76_27758)"/>
<path d="M46.5 42H45.5V29C45.5 28.4696 45.2893 27.9609 44.9142 27.5858C44.5391 27.2107 44.0304 27 43.5 27H35.5V21C35.5 20.4696 35.2893 19.9609 34.9142 19.5858C34.5391 19.2107 34.0304 19 33.5 19H21.5C20.9696 19 20.4609 19.2107 20.0858 19.5858C19.7107 19.9609 19.5 20.4696 19.5 21V42H18.5C18.2348 42 17.9804 42.1054 17.7929 42.2929C17.6054 42.4804 17.5 42.7348 17.5 43C17.5 43.2652 17.6054 43.5196 17.7929 43.7071C17.9804 43.8946 18.2348 44 18.5 44H46.5C46.7652 44 47.0196 43.8946 47.2071 43.7071C47.3946 43.5196 47.5 43.2652 47.5 43C47.5 42.7348 47.3946 42.4804 47.2071 42.2929C47.0196 42.1054 46.7652 42 46.5 42ZM31.5 33C31.5 33.2652 31.3946 33.5196 31.2071 33.7071C31.0196 33.8946 30.7652 34 30.5 34H26.5C26.2348 34 25.9804 33.8946 25.7929 33.7071C25.6054 33.5196 25.5 33.2652 25.5 33C25.5 32.7348 25.6054 32.4804 25.7929 32.2929C25.9804 32.1054 26.2348 32 26.5 32H30.5C30.7652 32 31.0196 32.1054 31.2071 32.2929C31.3946 32.4804 31.5 32.7348 31.5 33ZM24.5 24H28.5C28.7652 24 29.0196 24.1054 29.2071 24.2929C29.3946 24.4804 29.5 24.7348 29.5 25C29.5 25.2652 29.3946 25.5196 29.2071 25.7071C29.0196 25.8946 28.7652 26 28.5 26H24.5C24.2348 26 23.9804 25.8946 23.7929 25.7071C23.6054 25.5196 23.5 25.2652 23.5 25C23.5 24.7348 23.6054 24.4804 23.7929 24.2929C23.9804 24.1054 24.2348 24 24.5 24ZM24.5 37H28.5C28.7652 37 29.0196 37.1054 29.2071 37.2929C29.3946 37.4804 29.5 37.7348 29.5 38C29.5 38.2652 29.3946 38.5196 29.2071 38.7071C29.0196 38.8946 28.7652 39 28.5 39H24.5C24.2348 39 23.9804 38.8946 23.7929 38.7071C23.6054 38.5196 23.5 38.2652 23.5 38C23.5 37.7348 23.6054 37.4804 23.7929 37.2929C23.9804 37.1054 24.2348 37 24.5 37ZM35.5 29H43.5V42H35.5V29Z" fill="#0A0034"/>
<path d="M40.5 37H38.5C38.2348 37 37.9804 37.1054 37.7929 37.2929C37.6054 37.4804 37.5 37.7348 37.5 38C37.5 38.2652 37.6054 38.5196 37.7929 38.7071C37.9804 38.8946 38.2348 39 38.5 39H40.5C40.7652 39 41.0196 38.8946 41.2071 38.7071C41.3946 38.5196 41.5 38.2652 41.5 38C41.5 37.7348 41.3946 37.4804 41.2071 37.2929C41.0196 37.1054 40.7652 37 40.5 37Z" fill="#0A0034"/>
<path d="M38.5 34H40.5C40.7652 34 41.0196 33.8946 41.2071 33.7071C41.3946 33.5196 41.5 33.2652 41.5 33C41.5 32.7348 41.3946 32.4804 41.2071 32.2929C41.0196 32.1054 40.7652 32 40.5 32H38.5C38.2348 32 37.9804 32.1054 37.7929 32.2929C37.6054 32.4804 37.5 32.7348 37.5 33C37.5 33.2652 37.6054 33.5196 37.7929 33.7071C37.9804 33.8946 38.2348 34 38.5 34Z" fill="#0A0034"/>
<defs>
<linearGradient id="paint0_linear_76_27758" x1="-19.5" y1="-8.5" x2="78.6294" y2="-4.85984" gradientUnits="userSpaceOnUse">
<stop stop-color="#CC00FF"/>
<stop offset="1" stop-color="#ED00C7"/>
</linearGradient>
</defs>
</svg>
