<svg width="32" height="32" viewBox="0 0 32 32" fill="none" xmlns="http://www.w3.org/2000/svg">
<path d="M20.7997 16.0006C20.7997 17.2737 20.2939 18.4946 19.3938 19.3947C18.4936 20.2949 17.2727 20.8006 15.9996 20.8006C14.7266 20.8006 13.5057 20.2949 12.6055 19.3947C11.7054 18.4946 11.1996 17.2737 11.1996 16.0006C11.1996 15.727 11.2284 15.4598 11.278 15.2006H9.59965V21.5958C9.59965 22.0406 9.95965 22.4006 10.4044 22.4006H21.5964C21.8096 22.4002 22.0139 22.3152 22.1645 22.1643C22.3151 22.0135 22.3997 21.809 22.3996 21.5958V15.2006H20.7213C20.7708 15.4598 20.7997 15.727 20.7997 16.0006ZM15.9996 19.2006C16.42 19.2005 16.8362 19.1176 17.2245 18.9567C17.6128 18.7957 17.9656 18.5599 18.2627 18.2626C18.5599 17.9653 18.7956 17.6124 18.9563 17.224C19.1171 16.8356 19.1998 16.4194 19.1996 15.999C19.1995 15.5787 19.1166 15.1625 18.9557 14.7742C18.7947 14.3859 18.5589 14.0331 18.2616 13.736C17.9643 13.4388 17.6114 13.2031 17.223 13.0424C16.8346 12.8816 16.4184 12.7989 15.998 12.799C15.1491 12.7992 14.3351 13.1367 13.735 13.7371C13.1349 14.3375 12.7978 15.1517 12.798 16.0006C12.7983 16.8495 13.1357 17.6636 13.7361 18.2637C14.3365 18.8638 15.1507 19.2008 15.9996 19.2006ZM19.8396 12.6406H21.758C21.8855 12.6406 22.0078 12.5901 22.098 12.5001C22.1883 12.4102 22.2392 12.2881 22.2396 12.1606V10.2422C22.2396 10.1145 22.1889 9.992 22.0986 9.90168C22.0083 9.81137 21.8858 9.76062 21.758 9.76062H19.8396C19.7119 9.76062 19.5894 9.81137 19.4991 9.90168C19.4088 9.992 19.358 10.1145 19.358 10.2422V12.1606C19.3596 12.4246 19.5756 12.6406 19.8396 12.6406ZM15.9996 0.640625C11.9259 0.640625 8.01905 2.25891 5.13849 5.13946C2.25793 8.02002 0.639648 11.9269 0.639648 16.0006C0.639648 20.0744 2.25793 23.9812 5.13849 26.8618C8.01905 29.7423 11.9259 31.3606 15.9996 31.3606C18.0168 31.3606 20.0141 30.9633 21.8777 30.1914C23.7412 29.4195 25.4345 28.2881 26.8608 26.8618C28.2871 25.4355 29.4185 23.7422 30.1904 21.8786C30.9624 20.0151 31.3596 18.0177 31.3596 16.0006C31.3596 13.9835 30.9624 11.9862 30.1904 10.1226C29.4185 8.25905 28.2871 6.56577 26.8608 5.13946C25.4345 3.71316 23.7412 2.58175 21.8777 1.80984C20.0141 1.03792 18.0168 0.640625 15.9996 0.640625ZM23.9996 22.223C23.9996 23.2006 23.1996 24.0006 22.222 24.0006H9.77725C8.79965 24.0006 7.99965 23.2006 7.99965 22.223V9.77822C7.99965 8.80062 8.79965 8.00063 9.77725 8.00063H22.222C23.1996 8.00063 23.9996 8.80062 23.9996 9.77822V22.223Z" fill="#FF8E2A"/>
</svg>
