<svg width="32" height="32" viewBox="0 0 32 32" fill="none" xmlns="http://www.w3.org/2000/svg">
<path d="M15.9996 0.640625C7.51645 0.640625 0.639648 7.51743 0.639648 16.0006C0.639648 24.4838 7.51645 31.3606 15.9996 31.3606C24.4828 31.3606 31.3596 24.4838 31.3596 16.0006C31.3596 7.51743 24.4828 0.640625 15.9996 0.640625ZM12.2396 22.367H9.12925V12.3574H12.2396V22.367ZM10.6652 11.1286C9.68285 11.1286 9.04765 10.4326 9.04765 9.57183C9.04765 8.69343 9.70205 8.01823 10.7052 8.01823C11.7084 8.01823 12.3228 8.69343 12.342 9.57183C12.342 10.4326 11.7084 11.1286 10.6652 11.1286ZM23.5996 22.367H20.4892V16.8198C20.4892 15.5286 20.038 14.6518 18.9132 14.6518C18.054 14.6518 17.5436 15.2454 17.3181 15.8166C17.2348 16.0198 17.214 16.3078 17.214 16.5942V22.3654H14.102V15.5494C14.102 14.2998 14.062 13.255 14.0204 12.3558H16.7228L16.8652 13.7462H16.9276C17.3372 13.0934 18.3405 12.1302 20.0189 12.1302C22.0653 12.1302 23.5996 13.5014 23.5996 16.4486V22.367Z" fill="#FF8E2A"/>
</svg>
